<svg viewBox="0 0 12 18" xmlns="http://www.w3.org/2000/svg">
<path d="M6 4C5.58119 4 5.28479 4.26646 5.28479 4.64876L5.28479 11.8025L5.33634 13.0537L3.66753 11.3797L2.19845 10.0706C2.06959 9.95471 1.88918 9.87941 1.68943 9.87941C1.29639 9.87941 1 10.1459 1 10.5108C1 10.6788 1.07088 10.8352 1.22552 10.9742L5.47165 14.7973C5.6134 14.9305 5.8067 15 6 15C6.19974 15 6.39304 14.9305 6.53479 14.7973L10.7745 10.9742C10.9291 10.8352 11 10.6788 11 10.5108C11 10.1459 10.7101 9.87941 10.317 9.87941C10.1108 9.87941 9.93041 9.95471 9.80155 10.0706L8.33892 11.3797L6.66366 13.0595L6.72165 11.8025L6.72165 4.64876C6.72165 4.26646 6.42526 4 6 4Z"/>
</svg>
