<svg viewBox="0 0 20 20" xmlns="http://www.w3.org/2000/svg">
    <path d="m10 18.5c4.6944 0 8.5-3.8056 8.5-8.5 0-4.6944-3.8056-8.5-8.5-8.5-4.6944 0-8.5 3.8056-8.5 8.5 0 4.6944 3.8056 8.5 8.5 8.5zm0 1.5c5.5228 0 10-4.4772 10-10 0-5.5228-4.4772-10-10-10-5.5228 0-10 4.4772-10 10 0 5.5228 4.4772 10 10 10z" clip-rule="evenodd" fill-rule="evenodd"/>
    <path d="m7.25 7c0-0.41421 0.33579-0.75 0.75-0.75h5.5c0.4142 0 0.75 0.33579 0.75 0.75v5c0 0.4142-0.3358 0.75-0.75 0.75s-0.75-0.3358-0.75-0.75v-3.1893l-5.2197 5.2196c-0.29289 0.2929-0.76777 0.2929-1.0607 0s-0.29289-0.7677 0-1.0606l5.2196-5.2197h-3.6893c-0.41421 0-0.75-0.33579-0.75-0.75z" clip-rule="evenodd" fill-rule="evenodd"/>
</svg>
