<svg viewBox="0 0 20 20" xmlns="http://www.w3.org/2000/svg">
<path d="M10 17.05C13.7244 17.05 16.8093 13.9717 16.8093 10.2407C16.8093 6.51636 13.7244 3.4314 9.99341 3.4314C6.26904 3.4314 3.19067 6.51636 3.19067 10.2407C3.19067 13.9717 6.27564 17.05 10 17.05ZM9.84839 11.6118C9.42651 11.6118 9.1958 11.4075 9.1958 11.0186V10.946C9.1958 10.3198 9.55176 9.97046 10.033 9.62769C10.6196 9.22559 10.9031 9.01465 10.9031 8.57959C10.9031 8.11816 10.5339 7.79517 9.98023 7.79517C9.57153 7.79517 9.25513 7.98633 9.01782 8.36206L8.91235 8.50708C8.77393 8.68506 8.60254 8.79053 8.35205 8.79053C8.0752 8.79053 7.81152 8.58618 7.81152 8.25659C7.81152 8.12476 7.83789 8.01269 7.87744 7.89404C8.09497 7.25464 8.88599 6.7207 10.0659 6.7207C11.2854 6.7207 12.3137 7.3667 12.3137 8.51367C12.3137 9.31128 11.8721 9.70679 11.1997 10.1418C10.7515 10.4319 10.5142 10.6692 10.4878 11.0251C10.4878 11.0515 10.4878 11.0779 10.4878 11.1042C10.468 11.3877 10.2241 11.6118 9.84839 11.6118ZM9.83521 13.708C9.40015 13.708 9.03101 13.385 9.03101 12.9565C9.03101 12.5281 9.39356 12.1985 9.83521 12.1985C10.2834 12.1985 10.646 12.5215 10.646 12.9565C10.646 13.3916 10.2769 13.708 9.83521 13.708Z"/>
</svg>
