<svg viewBox="0 0 11 20" xmlns="http://www.w3.org/2000/svg">
<path d="M5.49714 5C5.07374 5 4.78767 5.29449 4.78767 5.73333V12.5759L4.83344 13.8289L3.47743 12.2814L2.19008 10.9879C2.05849 10.8609 1.88684 10.7743 1.68086 10.7743C1.2918 10.7743 1 11.063 1 11.4672C1 11.6577 1.07438 11.8367 1.22314 11.9869L4.97076 15.7748C5.10807 15.9192 5.30261 16 5.49714 16C5.69167 16 5.89193 15.9192 6.02924 15.7748L9.77686 11.9869C9.92562 11.8367 10 11.6577 10 11.4672C10 11.063 9.7082 10.7743 9.31914 10.7743C9.11316 10.7743 8.94151 10.8609 8.80992 10.9879L7.51685 12.2814L6.16084 13.8289L6.21233 12.5759V5.73333C6.21233 5.29449 5.92053 5 5.49714 5Z"/>
</svg>
